ffmpeg started on 2025-06-06 at 20:36:00
Report written to "D:\Convert\FFMetrics\reports\ssim_report-6.txt"
Log level: 32
Command line:
ffmpeg -hide_banner -nostdin -i "G:\\\xc0\xed\xe8\xec\xe5\\\xce\xed\xe3\xee\xe8\xed\xe3\xe8\\!_36_\xce\xf1\xe5\xed\xfc_2024\\DreamCast\\\xd2\xe5\xf2\xf0\xe0\xe4\xfc \xe4\xf0\xf3\xe6\xe1\xfb \xcd\xe0\xf6\xf3\xec\xfd [\xd2\xc2-7]\\[DC] Natsume Yuujinchou Shichi - 04_Telegram_HEVC.mkv" -i "G:\\\xc0\xed\xe8\xec\xe5\\\xce\xed\xe3\xee\xe8\xed\xe3\xe8\\!_36_\xce\xf1\xe5\xed\xfc_2024\\DreamCast\\\xd2\xe5\xf2\xf0\xe0\xe4\xfc \xe4\xf0\xf3\xe6\xe1\xfb \xcd\xe0\xf6\xf3\xec\xfd [\xd2\xc2-7]\\[DC] Natsume Yuujinchou Shichi - 04_Telegram.mp4" -lavfi "[0:v]settb=AVTB,setpts=PTS-STARTPTS,format=pix_fmts=yuv420p10,fps=24000/1001,scale=1920:1080:flags=bicubic[main];[1:v]settb=AVTB,setpts=PTS-STARTPTS,format=pix_fmts=yuv420p,fps=24000/1001,scale=1920:1080:flags=bicubic[ref];[main][ref]ssim=eof_action=endall:stats_file='D\\:/Convert/FFMetrics/logs/ssim_logfile-6.txt'" -f null -
Input #0, matroska,webm, from 'G:\Аниме\Онгоинги\!_36_Осень_2024\DreamCast\Тетрадь дружбы Нацумэ [ТВ-7]\[DC] Natsume Yuujinchou Shichi - 04_Telegram_HEVC.mkv':
  Metadata:
    COMPATIBLE_BRANDS: isomiso2avc1mp41
    MAJOR_BRAND     : isom
    MINOR_VERSION   : 512
    ENCODER         : Lavf61.7.100
  Duration: 00:23:56.72, start: -0.021000, bitrate: 738 kb/s
  Stream #0:0: Video: hevc (Main 10), yuv420p10le(tv, bt709, progressive), 1920x1080 [SAR 1:1 DAR 16:9], 23.98 fps, 23.98 tbr, 1k tbn (default)
      Metadata:
        HANDLER_NAME    : VideoHandler
        VENDOR_ID       : [0][0][0][0]
        ENCODER         : Lavc61.19.100 libx265
        BPS             : 540781
        DURATION        : 00:23:56.559708333
        NUMBER_OF_FRAMES: 34443
        NUMBER_OF_BYTES : 97108038
        _STATISTICS_WRITING_APP: mkvpropedit v66.0.0 ('Josie') 64-bit
        _STATISTICS_WRITING_DATE_UTC: 2025-06-04 14:46:40
        _STATISTICS_TAGS: BPS DURATION NUMBER_OF_FRAMES NUMBER_OF_BYTES
  Stream #0:1: Audio: aac (LC), 48000 Hz, stereo, fltp (default)
      Metadata:
        HANDLER_NAME    : SoundHandler
        VENDOR_ID       : [0][0][0][0]
        ENCODER         : Lavc61.19.100 aac
        BPS             : 193305
        DURATION        : 00:23:56.714000000
        NUMBER_OF_FRAMES: 67347
        NUMBER_OF_BYTES : 34715672
        _STATISTICS_WRITING_APP: mkvpropedit v66.0.0 ('Josie') 64-bit
        _STATISTICS_WRITING_DATE_UTC: 2025-06-04 14:46:40
        _STATISTICS_TAGS: BPS DURATION NUMBER_OF_FRAMES NUMBER_OF_BYTES
Input #1, mov,mp4,m4a,3gp,3g2,mj2, from 'G:\Аниме\Онгоинги\!_36_Осень_2024\DreamCast\Тетрадь дружбы Нацумэ [ТВ-7]\[DC] Natsume Yuujinchou Shichi - 04_Telegram.mp4':
  Metadata:
    major_brand     : isom
    minor_version   : 512
    compatible_brands: isomiso2avc1mp41
    encoder         : Lavf61.1.100
  Duration: 00:23:56.68, start: 0.000000, bitrate: 3286 kb/s
  Stream #1:0[0x1](und): Video: h264 (High) (avc1 / 0x31637661), yuv420p(tv, bt709, progressive), 1920x1080 [SAR 1:1 DAR 16:9], 3139 kb/s, 23.98 fps, 23.98 tbr, 24k tbn (default)
      Metadata:
        handler_name    : VideoHandler
        vendor_id       : [0][0][0][0]
        encoder         : Lavc61.3.100 h264_qsv
  Stream #1:1[0x2](und): Audio: aac (HE-AACv2) (mp4a / 0x6134706D), 48000 Hz, stereo, fltp, 144 kb/s (default)
      Metadata:
        handler_name    : SoundHandler
        vendor_id       : [0][0][0][0]
Stream mapping:
  Stream #0:0 (hevc) -> settb:default
  Stream #1:0 (h264) -> settb:default
  ssim:default -> Stream #0:0 (wrapped_avframe)
  Stream #0:1 -> #0:1 (aac (native) -> pcm_s16le (native))
Output #0, null, to 'pipe:':
  Metadata:
    COMPATIBLE_BRANDS: isomiso2avc1mp41
    MAJOR_BRAND     : isom
    MINOR_VERSION   : 512
    encoder         : Lavf61.7.100
  Stream #0:0: Video: wrapped_avframe, yuv420p10le(tv, bt709, progressive), 1920x1080 [SAR 1:1 DAR 16:9], q=2-31, 200 kb/s, 23.98 fps, 23.98 tbn
      Metadata:
        encoder         : Lavc61.19.100 wrapped_avframe
  Stream #0:1: Audio: pcm_s16le, 48000 Hz, stereo, s16, 1536 kb/s (default)
      Metadata:
        HANDLER_NAME    : SoundHandler
        VENDOR_ID       : [0][0][0][0]
        _STATISTICS_TAGS: BPS DURATION NUMBER_OF_FRAMES NUMBER_OF_BYTES
        BPS             : 193305
        DURATION        : 00:23:56.714000000
        NUMBER_OF_FRAMES: 67347
        NUMBER_OF_BYTES : 34715672
        _STATISTICS_WRITING_APP: mkvpropedit v66.0.0 ('Josie') 64-bit
        _STATISTICS_WRITING_DATE_UTC: 2025-06-04 14:46:40
        encoder         : Lavc61.19.100 pcm_s16le
frame=  173 fps=0.0 q=-0.0 size=N/A time=00:00:07.21 bitrate=N/A speed=14.1x    frame=  338 fps=331 q=-0.0 size=N/A time=00:00:14.09 bitrate=N/A speed=13.8x    frame=  539 fps=349 q=-0.0 size=N/A time=00:00:22.48 bitrate=N/A speed=14.6x    frame=  762 fps=371 q=-0.0 size=N/A time=00:00:31.78 bitrate=N/A speed=15.5x    frame=  965 fps=376 q=-0.0 size=N/A time=00:00:40.24 bitrate=N/A speed=15.7x    frame= 1180 fps=382 q=-0.0 size=N/A time=00:00:49.21 bitrate=N/A speed=15.9x    frame= 1388 fps=385 q=-0.0 size=N/A time=00:00:57.89 bitrate=N/A speed=16.1x    frame= 1599 fps=389 q=-0.0 size=N/A time=00:01:06.69 bitrate=N/A speed=16.2x    frame= 1807 fps=390 q=-0.0 size=N/A time=00:01:15.36 bitrate=N/A speed=16.3x    frame= 1984 fps=385 q=-0.0 size=N/A time=00:01:22.74 bitrate=N/A speed=16.1x    frame= 2201 fps=389 q=-0.0 size=N/A time=00:01:31.80 bitrate=N/A speed=16.2x    frame= 2450 fps=396 q=-0.0 size=N/A time=00:01:42.18 bitrate=N/A speed=16.5x    frame= 2698 fps=403 q=-0.0 size=N/A time=00:01:52.52 bitrate=N/A speed=16.8x    frame= 2988 fps=415 q=-0.0 size=N/A time=00:02:04.62 bitrate=N/A speed=17.3x    frame= 3246 fps=420 q=-0.0 size=N/A time=00:02:15.38 bitrate=N/A speed=17.5x    frame= 3528 fps=428 q=-0.0 size=N/A time=00:02:27.14 bitrate=N/A speed=17.8x    frame= 3811 fps=435 q=-0.0 size=N/A time=00:02:38.95 bitrate=N/A speed=18.1x    frame= 4080 fps=440 q=-0.0 size=N/A time=00:02:50.17 bitrate=N/A speed=18.3x    frame= 4335 fps=443 q=-0.0 size=N/A time=00:03:00.80 bitrate=N/A speed=18.5x    frame= 4630 fps=449 q=-0.0 size=N/A time=00:03:13.10 bitrate=N/A speed=18.7x    frame= 4910 fps=454 q=-0.0 size=N/A time=00:03:24.78 bitrate=N/A speed=18.9x    frame= 5178 fps=457 q=-0.0 size=N/A time=00:03:35.96 bitrate=N/A speed=19.1x    frame= 5470 fps=461 q=-0.0 size=N/A time=00:03:48.14 bitrate=N/A speed=19.2x    frame= 5739 fps=464 q=-0.0 size=N/A time=00:03:59.36 bitrate=N/A speed=19.4x    frame= 5998 fps=466 q=-0.0 size=N/A time=00:04:10.16 bitrate=N/A speed=19.4x    frame= 6266 fps=468 q=-0.0 size=N/A time=00:04:21.34 bitrate=N/A speed=19.5x    frame= 6524 fps=469 q=-0.0 size=N/A time=00:04:32.10 bitrate=N/A speed=19.6x    frame= 6789 fps=470 q=-0.0 size=N/A time=00:04:43.15 bitrate=N/A speed=19.6x    frame= 7059 fps=472 q=-0.0 size=N/A time=00:04:54.41 bitrate=N/A speed=19.7x    frame= 7344 fps=475 q=-0.0 size=N/A time=00:05:06.30 bitrate=N/A speed=19.8x    frame= 7625 fps=477 q=-0.0 size=N/A time=00:05:18.02 bitrate=N/A speed=19.9x    frame= 7918 fps=480 q=-0.0 size=N/A time=00:05:30.24 bitrate=N/A speed=  20x    frame= 8208 fps=482 q=-0.0 size=N/A time=00:05:42.34 bitrate=N/A speed=20.1x    frame= 8489 fps=484 q=-0.0 size=N/A time=00:05:54.06 bitrate=N/A speed=20.2x    frame= 8775 fps=486 q=-0.0 size=N/A time=00:06:05.99 bitrate=N/A speed=20.3x    frame= 9051 fps=488 q=-0.0 size=N/A time=00:06:17.50 bitrate=N/A speed=20.4x    frame= 9345 fps=490 q=-0.0 size=N/A time=00:06:29.76 bitrate=N/A speed=20.4x    frame= 9637 fps=492 q=-0.0 size=N/A time=00:06:41.94 bitrate=N/A speed=20.5x    frame= 9937 fps=494 q=-0.0 size=N/A time=00:06:54.45 bitrate=N/A speed=20.6x    frame=10226 fps=496 q=-0.0 size=N/A time=00:07:06.50 bitrate=N/A speed=20.7x    frame=10520 fps=498 q=-0.0 size=N/A time=00:07:18.77 bitrate=N/A speed=20.8x    frame=10810 fps=499 q=-0.0 size=N/A time=00:07:30.86 bitrate=N/A speed=20.8x    frame=11079 fps=500 q=-0.0 size=N/A time=00:07:42.08 bitrate=N/A speed=20.8x    frame=11348 fps=500 q=-0.0 size=N/A time=00:07:53.30 bitrate=N/A speed=20.9x    frame=11616 fps=501 q=-0.0 size=N/A time=00:08:04.48 bitrate=N/A speed=20.9x    frame=11906 fps=502 q=-0.0 size=N/A time=00:08:16.57 bitrate=N/A speed=20.9x    frame=12200 fps=503 q=-0.0 size=N/A time=00:08:28.84 bitrate=N/A speed=  21x    frame=12478 fps=504 q=-0.0 size=N/A time=00:08:40.43 bitrate=N/A speed=  21x    frame=12777 fps=505 q=-0.0 size=N/A time=00:08:52.90 bitrate=N/A speed=21.1x    frame=13067 fps=506 q=-0.0 size=N/A time=00:09:05.00 bitrate=N/A speed=21.1x    frame=13325 fps=506 q=-0.0 size=N/A time=00:09:15.76 bitrate=N/A speed=21.1x    frame=13569 fps=506 q=-0.0 size=N/A time=00:09:25.94 bitrate=N/A speed=21.1x    frame=13842 fps=506 q=-0.0 size=N/A time=00:09:37.32 bitrate=N/A speed=21.1x    frame=14132 fps=507 q=-0.0 size=N/A time=00:09:49.42 bitrate=N/A speed=21.1x    frame=14427 fps=508 q=-0.0 size=N/A time=00:10:01.72 bitrate=N/A speed=21.2x    frame=14701 fps=508 q=-0.0 size=N/A time=00:10:13.15 bitrate=N/A speed=21.2x    frame=14997 fps=510 q=-0.0 size=N/A time=00:10:25.49 bitrate=N/A speed=21.3x    frame=15256 fps=510 q=-0.0 size=N/A time=00:10:36.30 bitrate=N/A speed=21.3x    frame=15545 fps=510 q=-0.0 size=N/A time=00:10:48.35 bitrate=N/A speed=21.3x    frame=15826 fps=511 q=-0.0 size=N/A time=00:11:00.07 bitrate=N/A speed=21.3x    frame=16102 fps=511 q=-0.0 size=N/A time=00:11:11.58 bitrate=N/A speed=21.3x    frame=16355 fps=511 q=-0.0 size=N/A time=00:11:22.13 bitrate=N/A speed=21.3x    frame=16601 fps=510 q=-0.0 size=N/A time=00:11:32.40 bitrate=N/A speed=21.3x    frame=16880 fps=511 q=-0.0 size=N/A time=00:11:44.03 bitrate=N/A speed=21.3x    frame=17149 fps=511 q=-0.0 size=N/A time=00:11:55.25 bitrate=N/A speed=21.3x    frame=17440 fps=512 q=-0.0 size=N/A time=00:12:07.39 bitrate=N/A speed=21.3x    frame=17717 fps=512 q=-0.0 size=N/A time=00:12:18.94 bitrate=N/A speed=21.4x    frame=18004 fps=513 q=-0.0 size=N/A time=00:12:30.91 bitrate=N/A speed=21.4x    frame=18268 fps=513 q=-0.0 size=N/A time=00:12:41.92 bitrate=N/A speed=21.4x    frame=18549 fps=513 q=-0.0 size=N/A time=00:12:53.64 bitrate=N/A speed=21.4x    frame=18840 fps=514 q=-0.0 size=N/A time=00:13:05.78 bitrate=N/A speed=21.4x    frame=19135 fps=515 q=-0.0 size=N/A time=00:13:18.08 bitrate=N/A speed=21.5x    frame=19423 fps=515 q=-0.0 size=N/A time=00:13:30.10 bitrate=N/A speed=21.5x    frame=19720 fps=516 q=-0.0 size=N/A time=00:13:42.48 bitrate=N/A speed=21.5x    frame=20027 fps=517 q=-0.0 size=N/A time=00:13:55.29 bitrate=N/A speed=21.6x    frame=20315 fps=518 q=-0.0 size=N/A time=00:14:07.30 bitrate=N/A speed=21.6x    frame=20612 fps=518 q=-0.0 size=N/A time=00:14:19.69 bitrate=N/A speed=21.6x    frame=20902 fps=519 q=-0.0 size=N/A time=00:14:31.78 bitrate=N/A speed=21.6x    frame=21178 fps=519 q=-0.0 size=N/A time=00:14:43.29 bitrate=N/A speed=21.7x    frame=21481 fps=520 q=-0.0 size=N/A time=00:14:55.93 bitrate=N/A speed=21.7x    frame=21764 fps=520 q=-0.0 size=N/A time=00:15:07.74 bitrate=N/A speed=21.7x    frame=22023 fps=520 q=-0.0 size=N/A time=00:15:18.54 bitrate=N/A speed=21.7x    frame=22304 fps=520 q=-0.0 size=N/A time=00:15:30.26 bitrate=N/A speed=21.7x    frame=22592 fps=521 q=-0.0 size=N/A time=00:15:42.27 bitrate=N/A speed=21.7x    frame=22891 fps=522 q=-0.0 size=N/A time=00:15:54.74 bitrate=N/A speed=21.8x    frame=23174 fps=522 q=-0.0 size=N/A time=00:16:06.54 bitrate=N/A speed=21.8x    frame=23468 fps=523 q=-0.0 size=N/A time=00:16:18.81 bitrate=N/A speed=21.8x    frame=23767 fps=523 q=-0.0 size=N/A time=00:16:31.28 bitrate=N/A speed=21.8x    frame=24055 fps=524 q=-0.0 size=N/A time=00:16:43.29 bitrate=N/A speed=21.8x    frame=24356 fps=524 q=-0.0 size=N/A time=00:16:55.84 bitrate=N/A speed=21.9x    frame=24636 fps=524 q=-0.0 size=N/A time=00:17:07.52 bitrate=N/A speed=21.9x    frame=24920 fps=525 q=-0.0 size=N/A time=00:17:19.37 bitrate=N/A speed=21.9x    frame=25202 fps=525 q=-0.0 size=N/A time=00:17:31.13 bitrate=N/A speed=21.9x    frame=25475 fps=525 q=-0.0 size=N/A time=00:17:42.51 bitrate=N/A speed=21.9x    frame=25764 fps=525 q=-0.0 size=N/A time=00:17:54.57 bitrate=N/A speed=21.9x    frame=26067 fps=526 q=-0.0 size=N/A time=00:18:07.21 bitrate=N/A speed=21.9x    frame=26349 fps=526 q=-0.0 size=N/A time=00:18:18.97 bitrate=N/A speed=21.9x    frame=26635 fps=527 q=-0.0 size=N/A time=00:18:30.90 bitrate=N/A speed=  22x    frame=26924 fps=527 q=-0.0 size=N/A time=00:18:42.95 bitrate=N/A speed=  22x    frame=27214 fps=527 q=-0.0 size=N/A time=00:18:55.05 bitrate=N/A speed=  22x    frame=27513 fps=528 q=-0.0 size=N/A time=00:19:07.52 bitrate=N/A speed=  22x    frame=27779 fps=528 q=-0.0 size=N/A time=00:19:18.61 bitrate=N/A speed=  22x    frame=28043 fps=528 q=-0.0 size=N/A time=00:19:29.62 bitrate=N/A speed=  22x    frame=28313 fps=527 q=-0.0 size=N/A time=00:19:40.88 bitrate=N/A speed=  22x    frame=28556 fps=527 q=-0.0 size=N/A time=00:19:51.02 bitrate=N/A speed=  22x    frame=28771 fps=526 q=-0.0 size=N/A time=00:19:59.99 bitrate=N/A speed=21.9x    frame=28981 fps=525 q=-0.0 size=N/A time=00:20:08.74 bitrate=N/A speed=21.9x    frame=29222 fps=524 q=-0.0 size=N/A time=00:20:18.80 bitrate=N/A speed=21.9x    frame=29494 fps=524 q=-0.0 size=N/A time=00:20:30.14 bitrate=N/A speed=21.9x    frame=29790 fps=525 q=-0.0 size=N/A time=00:20:42.49 bitrate=N/A speed=21.9x    frame=30056 fps=525 q=-0.0 size=N/A time=00:20:53.58 bitrate=N/A speed=21.9x    frame=30342 fps=525 q=-0.0 size=N/A time=00:21:05.51 bitrate=N/A speed=21.9x    frame=30617 fps=525 q=-0.0 size=N/A time=00:21:16.98 bitrate=N/A speed=21.9x    frame=30883 fps=525 q=-0.0 size=N/A time=00:21:28.07 bitrate=N/A speed=21.9x    frame=31108 fps=524 q=-0.0 size=N/A time=00:21:37.46 bitrate=N/A speed=21.9x    frame=31349 fps=524 q=-0.0 size=N/A time=00:21:47.51 bitrate=N/A speed=21.8x    frame=31614 fps=524 q=-0.0 size=N/A time=00:21:58.56 bitrate=N/A speed=21.8x    frame=31885 fps=524 q=-0.0 size=N/A time=00:22:09.87 bitrate=N/A speed=21.8x    frame=32142 fps=523 q=-0.0 size=N/A time=00:22:20.58 bitrate=N/A speed=21.8x    frame=32372 fps=523 q=-0.0 size=N/A time=00:22:30.18 bitrate=N/A speed=21.8x    frame=32614 fps=522 q=-0.0 size=N/A time=00:22:40.27 bitrate=N/A speed=21.8x    frame=32854 fps=522 q=-0.0 size=N/A time=00:22:50.28 bitrate=N/A speed=21.8x    frame=33125 fps=522 q=-0.0 size=N/A time=00:23:01.58 bitrate=N/A speed=21.8x    frame=33378 fps=522 q=-0.0 size=N/A time=00:23:12.14 bitrate=N/A speed=21.8x    frame=33626 fps=521 q=-0.0 size=N/A time=00:23:22.48 bitrate=N/A speed=21.7x    frame=33890 fps=521 q=-0.0 size=N/A time=00:23:33.49 bitrate=N/A speed=21.7x    frame=34111 fps=521 q=-0.0 size=N/A time=00:23:42.71 bitrate=N/A speed=21.7x    frame=34333 fps=520 q=-0.0 size=N/A time=00:23:51.97 bitrate=N/A speed=21.7x    [Parsed_ssim_10 @ 00000247a6802d40] SSIM Y:0.995105 (23.102493) U:0.994831 (22.866271) V:0.995143 (23.135899) All:0.995066 (23.067718)
[out#0/null @ 00000247a67b46c0] video:14800KiB audio:269388KiB subtitle:0KiB other streams:0KiB global headers:0KiB muxing overhead: unknown
frame=34443 fps=519 q=-0.0 Lsize=N/A time=00:23:56.56 bitrate=N/A speed=21.7x    
